<svg width="43" height="38" viewBox="0 0 43 38" fill="none" xmlns="http://www.w3.org/2000/svg">
<path d="M13.4375 14.8833L29.5625 6.66583M37.1413 11.02L21.5 19.0158L5.85875 11.02M21.5 34.96V19M5.375 25.3333V12.6667C5.37565 12.1114 5.54152 11.5659 5.85599 11.0852C6.17046 10.6044 6.62247 10.2052 7.16667 9.9275L19.7083 3.59417C20.2531 3.31623 20.871 3.16991 21.5 3.16991C22.129 3.16991 22.7469 3.31623 23.2917 3.59417L35.8333 9.9275C36.3775 10.2052 36.8295 10.6044 37.144 11.0852C37.4585 11.5659 37.6244 12.1114 37.625 12.6667V25.3333C37.6244 25.8886 37.4585 26.434 37.144 26.9148C36.8295 27.3956 36.3775 27.7948 35.8333 28.0725L23.2917 34.4058C22.7469 34.6838 22.129 34.8301 21.5 34.8301C20.871 34.8301 20.2531 34.6838 19.7083 34.4058L7.16667 28.0725C6.62247 27.7948 6.17046 27.3956 5.85599 26.9148C5.54152 26.434 5.37565 25.8886 5.375 25.3333Z" stroke="white" stroke-width="4" stroke-linecap="round" stroke-linejoin="round"/>
</svg>
